{"title":"DEKH BHAI DEKH Vol 3 By RoYStaR","uid":9189019,"size":1490765148,"categoryP":"video","categoryS":"tv_shows","magnet":"?xt=urn:btih:962ee5b45d093dd6ea6593707c0e7adaa1cf0734&amp;dn=DEKH+BHAI+DEKH+Vol+3+By+RoYStaR&amp;tr=udp%3A%2F%2Ftracker.openbittorrent.com%3A80&amp;tr=udp%3A%2F%2Fopen.demonii.com%3A1337&amp;tr=udp%3A%2F%2Ftracker.coppersurfer.tk%3A6969&amp;tr=udp%3A%2F%2Fexodus.desync.com%3A6969","seeders":1,"leechers":0,"uploader":"roystarid","files":3,"time":1384355782,"description":"Format                                   : MPEG-4\nFile size                                : 1.37 GiB\nDuration                                 : 2h 40mn\nOverall bit rate                         : 1 226 Kbps\n\nVideo\nFormat/Info                              : Advanced Video Codec\nDuration                                 : 2h 40mn\nBit rate                                 : 1 093 Kbps\nWidth                                    : 608 pixels\nHeight                                   : 464 pixels\nDisplay aspect ratio                     : 4:3\nFrame rate mode                          : Constant\nFrame rate                               : 29.970 fps\nBits/(Pixel*Frame)                       : 0.129\nStream size                              : 1.22 GiB (89%)\n\nAudio\nFormat                                   : AAC\nDuration                                 : 2h 40mn\nBit rate                                 : 128 Kbps\nChannel(s)                               : 2 channels\nChannel positions                        : Front: L R\nSampling rate                            : 48.0 KHz\nCompression mode                         : Lossy\nStream size                              : 147 MiB (10%)\n\n\nSample Link &lt;a href=&quot;\nhttp://urlz.so/l/mu-pznpdevk/&quot; rel=&quot;nofollow&quot; target=&quot;_NEW&quot;&gt;\nhttp://urlz.so/l/mu-pznpdevk/&lt;/a&gt;\nOR\n\nDekh Bhai Dekh is famous Indian Comedy Family Drama Show.\nThis torrent have Volume Disk 3 episodes. \n\n5 to 6 Episodes are there.\n608x464 Pixels resolution. With 4:3 Ratio.\n\nThis is not available on Net Easily. I have downloaded This episode In more than 10 Days with very slow Speed.\n\nNow I have upload it for you..","torrent":{"xt":"urn:btih:962ee5b45d093dd6ea6593707c0e7adaa1cf0734","amp;dn":"DEKH+BHAI+DEKH+Vol+3+By+RoYStaR","amp;tr":["udp%3A%2F%2Ftracker.openbittorrent.com%3A80","udp%3A%2F%2Fopen.demonii.com%3A1337","udp%3A%2F%2Ftracker.coppersurfer.tk%3A6969","udp%3A%2F%2Fexodus.desync.com%3A6969"],"infoHash":"962ee5b45d093dd6ea6593707c0e7adaa1cf0734","infoHashBuffer":{"type":"Buffer","data":[150,46,229,180,93,9,61,214,234,101,147,112,124,14,122,218,161,207,7,52]},"announce":[],"urlList":[]}}